<svg width="812" height="482" viewBox="0 0 812 482" fill="none" xmlns="http://www.w3.org/2000/svg">
<path d="M13.256 95.1805C10.718 95.1805 8.918 93.5425 8.936 91.0765H10.88C10.88 92.4445 11.816 93.4885 13.274 93.4885C14.804 93.4885 15.812 92.4265 15.812 90.7885C15.812 89.1865 14.822 88.0165 13.256 88.0165C12.194 88.0165 11.294 88.5565 10.988 89.2765H9.188L9.494 82.0225H17.09V83.6965H11.168L11.006 87.2605L11.078 87.2785C11.6 86.7565 12.644 86.3785 13.616 86.3785C16.082 86.3785 17.792 88.1965 17.792 90.7345C17.792 93.3625 15.974 95.1805 13.256 95.1805ZM22.6659 88.2865C20.7759 88.2865 19.4799 86.9365 19.4799 84.9745C19.4799 83.0665 20.7579 81.7345 22.6659 81.7345C24.5919 81.7345 25.8699 83.0665 25.8699 84.9925C25.8699 86.9365 24.5739 88.2865 22.6659 88.2865ZM21.8019 95.0005L30.1179 81.8785H31.4679L23.1339 95.0005H21.8019ZM22.6659 87.0265C23.7279 87.0265 24.4479 86.1805 24.4479 84.9745C24.4479 83.7865 23.7279 82.9765 22.6659 82.9765C21.6219 82.9765 20.9019 83.7865 20.9019 84.9745C20.9019 86.1805 21.6039 87.0265 22.6659 87.0265ZM30.3699 95.1805C28.4799 95.1805 27.1659 93.8485 27.1659 91.8865C27.1659 89.9785 28.4619 88.6105 30.3699 88.6105C32.2959 88.6105 33.5559 89.9785 33.5559 91.9045C33.5559 93.8305 32.2779 95.1805 30.3699 95.1805ZM30.3699 93.9205C31.4319 93.9205 32.1519 93.0745 32.1519 91.8685C32.1519 90.6985 31.4139 89.8525 30.3699 89.8525C29.3259 89.8525 28.5879 90.6985 28.5879 91.8685C28.5879 93.0745 29.3259 93.9205 30.3699 93.9205Z" fill="#242528"/>
<path d="M14.786 158V154.904H8.486V153.338L13.994 145.022H16.712V153.302H18.314L18.296 154.904H16.712V158H14.786ZM10.448 153.302H14.786V146.66L10.448 153.302ZM22.8417 151.286C20.9517 151.286 19.6557 149.936 19.6557 147.974C19.6557 146.066 20.9337 144.734 22.8417 144.734C24.7677 144.734 26.0457 146.066 26.0457 147.992C26.0457 149.936 24.7497 151.286 22.8417 151.286ZM21.9777 158L30.2937 144.878H31.6437L23.3097 158H21.9777ZM22.8417 150.026C23.9037 150.026 24.6237 149.18 24.6237 147.974C24.6237 146.786 23.9037 145.976 22.8417 145.976C21.7977 145.976 21.0777 146.786 21.0777 147.974C21.0777 149.18 21.7797 150.026 22.8417 150.026ZM30.5457 158.18C28.6557 158.18 27.3417 156.848 27.3417 154.886C27.3417 152.978 28.6377 151.61 30.5457 151.61C32.4717 151.61 33.7317 152.978 33.7317 154.904C33.7317 156.83 32.4537 158.18 30.5457 158.18ZM30.5457 156.92C31.6077 156.92 32.3277 156.074 32.3277 154.868C32.3277 153.698 31.5897 152.852 30.5457 152.852C29.5017 152.852 28.7637 153.698 28.7637 154.868C28.7637 156.074 29.5017 156.92 30.5457 156.92Z" fill="#242528"/>
<path d="M13.04 222.18C10.322 222.18 8.702 220.524 8.756 218.04H10.718C10.664 219.714 11.654 220.524 13.04 220.524C14.516 220.524 15.488 219.624 15.488 218.274C15.488 216.942 14.534 216.096 13.004 216.096H11.924V214.548H12.932C14.516 214.548 15.29 213.63 15.29 212.478C15.29 211.2 14.318 210.534 13.076 210.534C11.654 210.534 10.826 211.416 10.79 212.964H8.828C8.81 210.462 10.61 208.86 13.148 208.86C15.416 208.86 17.27 210.102 17.27 212.316C17.27 213.558 16.64 214.638 15.362 215.196V215.322C16.838 215.826 17.486 217.086 17.486 218.364C17.486 220.65 15.632 222.18 13.04 222.18ZM22.3847 215.286C20.4947 215.286 19.1987 213.936 19.1987 211.974C19.1987 210.066 20.4767 208.734 22.3847 208.734C24.3107 208.734 25.5887 210.066 25.5887 211.992C25.5887 213.936 24.2927 215.286 22.3847 215.286ZM21.5207 222L29.8367 208.878H31.1867L22.8527 222H21.5207ZM22.3847 214.026C23.4467 214.026 24.1667 213.18 24.1667 211.974C24.1667 210.786 23.4467 209.976 22.3847 209.976C21.3407 209.976 20.6207 210.786 20.6207 211.974C20.6207 213.18 21.3227 214.026 22.3847 214.026ZM30.0887 222.18C28.1987 222.18 26.8847 220.848 26.8847 218.886C26.8847 216.978 28.1807 215.61 30.0887 215.61C32.0147 215.61 33.2747 216.978 33.2747 218.904C33.2747 220.83 31.9967 222.18 30.0887 222.18ZM30.0887 220.92C31.1507 220.92 31.8707 220.074 31.8707 218.868C31.8707 217.698 31.1327 216.852 30.0887 216.852C29.0447 216.852 28.3067 217.698 28.3067 218.868C28.3067 220.074 29.0447 220.92 30.0887 220.92Z" fill="#242528"/>
<path d="M8.792 286V285.55C8.792 280.564 15.272 279.934 15.272 276.658C15.272 275.308 14.39 274.534 13.058 274.534C11.582 274.534 10.754 275.488 10.844 276.964H8.936C8.846 274.498 10.592 272.86 13.184 272.86C15.632 272.86 17.27 274.354 17.27 276.568C17.27 280.402 11.78 281.68 11.078 284.326C11.474 284.308 11.888 284.308 12.284 284.308H17.414V286H8.792ZM22.2616 279.286C20.3716 279.286 19.0756 277.936 19.0756 275.974C19.0756 274.066 20.3536 272.734 22.2616 272.734C24.1876 272.734 25.4656 274.066 25.4656 275.992C25.4656 277.936 24.1696 279.286 22.2616 279.286ZM21.3976 286L29.7136 272.878H31.0636L22.7296 286H21.3976ZM22.2616 278.026C23.3236 278.026 24.0436 277.18 24.0436 275.974C24.0436 274.786 23.3236 273.976 22.2616 273.976C21.2176 273.976 20.4976 274.786 20.4976 275.974C20.4976 277.18 21.1996 278.026 22.2616 278.026ZM29.9656 286.18C28.0756 286.18 26.7616 284.848 26.7616 282.886C26.7616 280.978 28.0576 279.61 29.9656 279.61C31.8916 279.61 33.1516 280.978 33.1516 282.904C33.1516 284.83 31.8736 286.18 29.9656 286.18ZM29.9656 284.92C31.0276 284.92 31.7476 284.074 31.7476 282.868C31.7476 281.698 31.0096 280.852 29.9656 280.852C28.9216 280.852 28.1836 281.698 28.1836 282.868C28.1836 284.074 28.9216 284.92 29.9656 284.92Z" fill="#242528"/>
<path d="M12.32 350V340.73H8.918V339.29H9.35C11.078 339.29 12.248 338.444 12.428 337.022H14.192V350H12.32ZM20.0292 343.286C18.1392 343.286 16.8432 341.936 16.8432 339.974C16.8432 338.066 18.1212 336.734 20.0292 336.734C21.9552 336.734 23.2332 338.066 23.2332 339.992C23.2332 341.936 21.9372 343.286 20.0292 343.286ZM19.1652 350L27.4812 336.878H28.8312L20.4972 350H19.1652ZM20.0292 342.026C21.0912 342.026 21.8112 341.18 21.8112 339.974C21.8112 338.786 21.0912 337.976 20.0292 337.976C18.9852 337.976 18.2652 338.786 18.2652 339.974C18.2652 341.18 18.9672 342.026 20.0292 342.026ZM27.7332 350.18C25.8432 350.18 24.5292 348.848 24.5292 346.886C24.5292 344.978 25.8252 343.61 27.7332 343.61C29.6592 343.61 30.9192 344.978 30.9192 346.904C30.9192 348.83 29.6412 350.18 27.7332 350.18ZM27.7332 348.92C28.7952 348.92 29.5152 348.074 29.5152 346.868C29.5152 345.698 28.7772 344.852 27.7332 344.852C26.6892 344.852 25.9512 345.698 25.9512 346.868C25.9512 348.074 26.6892 348.92 27.7332 348.92Z" fill="#242528"/>
<path d="M13.238 414.108C10.556 414.108 8.63 411.912 8.63 407.466C8.63 402.984 10.61 400.86 13.256 400.86C15.92 400.86 17.828 403.038 17.828 407.466C17.828 411.984 15.848 414.108 13.238 414.108ZM13.22 412.416C15.074 412.416 15.83 410.562 15.83 407.502C15.83 404.082 14.894 402.552 13.238 402.552C11.384 402.552 10.628 404.388 10.628 407.43C10.628 410.814 11.546 412.416 13.22 412.416ZM22.455 407.286C20.565 407.286 19.269 405.936 19.269 403.974C19.269 402.066 20.547 400.734 22.455 400.734C24.381 400.734 25.659 402.066 25.659 403.992C25.659 405.936 24.363 407.286 22.455 407.286ZM21.591 414L29.907 400.878H31.257L22.923 414H21.591ZM22.455 406.026C23.517 406.026 24.237 405.18 24.237 403.974C24.237 402.786 23.517 401.976 22.455 401.976C21.411 401.976 20.691 402.786 20.691 403.974C20.691 405.18 21.393 406.026 22.455 406.026ZM30.159 414.18C28.269 414.18 26.955 412.848 26.955 410.886C26.955 408.978 28.251 407.61 30.159 407.61C32.085 407.61 33.345 408.978 33.345 410.904C33.345 412.83 32.067 414.18 30.159 414.18ZM30.159 412.92C31.221 412.92 31.941 412.074 31.941 410.868C31.941 409.698 31.203 408.852 30.159 408.852C29.115 408.852 28.377 409.698 28.377 410.868C28.377 412.074 29.115 412.92 30.159 412.92Z" fill="#242528"/>
<line x1="43" y1="406.5" x2="804" y2="406.5" stroke="#AAABAE"/>
<line x1="43" y1="342.5" x2="804" y2="342.5" stroke="#AAABAE"/>
<line x1="43" y1="278.5" x2="804" y2="278.5" stroke="#AAABAE"/>
<line x1="43" y1="214.5" x2="804" y2="214.5" stroke="#AAABAE"/>
<line x1="43" y1="150.5" x2="804" y2="150.5" stroke="#AAABAE"/>
<line x1="43" y1="87.5005" x2="804" y2="87.5005" stroke="#AAABAE"/>
<path d="M186.364 59.1805C182.512 59.1805 179.974 56.6965 179.974 52.4305C179.974 48.2005 182.512 45.6985 186.364 45.6985C189.622 45.6985 191.944 47.5525 192.286 50.3785H189.37C189.01 48.9925 187.858 48.1825 186.364 48.1825C184.222 48.1825 182.944 49.6225 182.944 52.4305C182.944 55.2745 184.222 56.6965 186.364 56.6965C187.93 56.6965 189.064 55.8145 189.37 54.4825H192.286C191.98 57.3085 189.55 59.1805 186.364 59.1805ZM197.395 59.1805C195.199 59.1805 194.011 57.8665 194.011 55.4005V49.3705H196.675V54.7165C196.675 56.2285 197.197 56.9845 198.421 56.9845C199.717 56.9845 200.455 55.9765 200.455 54.6805V49.3705H203.119V59.0005H200.563L200.437 57.3445H200.311C199.861 58.5505 198.745 59.1805 197.395 59.1805ZM205.422 59.0005V49.3705H207.816L207.942 51.0805H208.068C208.518 49.8025 209.454 49.2265 210.732 49.2265C211.038 49.2265 211.272 49.2625 211.488 49.3165V51.9445C211.254 51.8725 211.02 51.8365 210.732 51.8365C209.238 51.8365 208.086 52.6825 208.086 54.8965V59.0005H205.422ZM212.91 59.0005V49.3705H215.304L215.43 51.0805H215.556C216.006 49.8025 216.942 49.2265 218.22 49.2265C218.526 49.2265 218.76 49.2625 218.976 49.3165V51.9445C218.742 51.8725 218.508 51.8365 218.22 51.8365C216.726 51.8365 215.574 52.6825 215.574 54.8965V59.0005H212.91ZM224.399 59.1805C221.375 59.1805 219.593 57.2185 219.593 54.2485C219.593 51.1525 221.483 49.1905 224.381 49.1905C227.171 49.1905 228.863 50.9545 228.863 53.6005C228.863 54.0505 228.827 54.5185 228.773 54.8065H222.257C222.275 56.3005 223.121 57.1105 224.417 57.1105C225.425 57.1105 226.145 56.6425 226.325 55.9585H228.863C228.629 57.8845 226.811 59.1805 224.399 59.1805ZM222.293 53.0965H226.253C226.217 51.9085 225.461 51.2605 224.327 51.2605C223.193 51.2605 222.419 51.9625 222.293 53.0965ZM230.593 59.0005V49.3705H233.149L233.257 51.0265H233.383C233.851 49.8385 234.985 49.1905 236.353 49.1905C238.297 49.1905 239.737 50.3065 239.737 53.0965V59.0005H237.073V53.6545C237.073 52.1425 236.551 51.4045 235.309 51.4045C233.995 51.4045 233.257 52.3945 233.257 53.6905V59.0005H230.593ZM245.101 59.1805C243.499 59.1805 242.401 58.5145 242.401 56.5345V51.5305H240.835V49.3705H242.401V46.9405L245.065 46.3465V49.3705H247.135V51.5305H245.065V55.8505C245.065 56.8045 245.371 56.9845 246.145 56.9845C246.559 56.9845 246.883 56.8765 247.135 56.7505V58.8025C246.667 59.0185 245.875 59.1805 245.101 59.1805ZM251.485 59.0005L256.057 45.8785H259.477L264.049 59.0005H261.241L260.341 56.3185H255.175L254.275 59.0005H251.485ZM255.859 54.1405H259.657L257.821 48.7405H257.713L255.859 54.1405ZM268.823 59.1805C266.231 59.1805 264.611 57.8845 264.611 55.9765H267.239C267.239 56.8225 267.887 57.2725 268.895 57.2725C269.831 57.2725 270.335 56.8765 270.335 56.2645C270.335 55.5625 269.741 55.4365 269.309 55.3465L267.581 55.0405C265.547 54.6985 264.845 53.6545 264.845 52.2865C264.845 50.3965 266.465 49.1905 268.895 49.1905C271.271 49.1905 272.801 50.4145 272.855 52.2145H270.227C270.209 51.4585 269.687 51.0985 268.823 51.0985C267.995 51.0985 267.509 51.4405 267.509 52.0345C267.509 52.7905 268.265 52.8985 268.769 52.9885L270.371 53.2585C272.315 53.6005 273.053 54.6445 273.053 56.0845C273.053 58.0285 271.361 59.1805 268.823 59.1805ZM278.42 59.1805C275.828 59.1805 274.208 57.8845 274.208 55.9765H276.836C276.836 56.8225 277.484 57.2725 278.492 57.2725C279.428 57.2725 279.932 56.8765 279.932 56.2645C279.932 55.5625 279.338 55.4365 278.906 55.3465L277.178 55.0405C275.144 54.6985 274.442 53.6545 274.442 52.2865C274.442 50.3965 276.062 49.1905 278.492 49.1905C280.868 49.1905 282.398 50.4145 282.452 52.2145H279.824C279.806 51.4585 279.284 51.0985 278.42 51.0985C277.592 51.0985 277.106 51.4405 277.106 52.0345C277.106 52.7905 277.862 52.8985 278.366 52.9885L279.968 53.2585C281.912 53.6005 282.65 54.6445 282.65 56.0845C282.65 58.0285 280.958 59.1805 278.42 59.1805ZM288.612 59.1805C285.588 59.1805 283.806 57.2185 283.806 54.2485C283.806 51.1525 285.696 49.1905 288.594 49.1905C291.384 49.1905 293.076 50.9545 293.076 53.6005C293.076 54.0505 293.04 54.5185 292.986 54.8065H286.47C286.488 56.3005 287.334 57.1105 288.63 57.1105C289.638 57.1105 290.358 56.6425 290.538 55.9585H293.076C292.842 57.8845 291.024 59.1805 288.612 59.1805ZM286.506 53.0965H290.466C290.43 51.9085 289.674 51.2605 288.54 51.2605C287.406 51.2605 286.632 51.9625 286.506 53.0965ZM297.871 59.1805C296.269 59.1805 295.171 58.5145 295.171 56.5345V51.5305H293.605V49.3705H295.171V46.9405L297.835 46.3465V49.3705H299.905V51.5305H297.835V55.8505C297.835 56.8045 298.141 56.9845 298.915 56.9845C299.329 56.9845 299.653 56.8765 299.905 56.7505V58.8025C299.437 59.0185 298.645 59.1805 297.871 59.1805ZM309.132 59.0005V53.9605L304.272 45.8785H307.494L310.482 51.2065H310.626L313.668 45.8785H316.872L311.958 53.9605V59.0005H309.132ZM318.062 48.0925V45.8785H320.708V48.0925H318.062ZM318.062 59.0005V49.3705H320.708V59.0005H318.062ZM327.231 59.1805C324.207 59.1805 322.425 57.2185 322.425 54.2485C322.425 51.1525 324.315 49.1905 327.213 49.1905C330.003 49.1905 331.695 50.9545 331.695 53.6005C331.695 54.0505 331.659 54.5185 331.605 54.8065H325.089C325.107 56.3005 325.953 57.1105 327.249 57.1105C328.257 57.1105 328.977 56.6425 329.157 55.9585H331.695C331.461 57.8845 329.643 59.1805 327.231 59.1805ZM325.125 53.0965H329.085C329.049 51.9085 328.293 51.2605 327.159 51.2605C326.025 51.2605 325.251 51.9625 325.125 53.0965ZM333.425 59.0005V45.8785H336.071V59.0005H333.425ZM341.694 59.1805C339.354 59.1805 337.788 57.5065 337.788 54.1765C337.788 50.8465 339.354 49.1905 341.694 49.1905C343.116 49.1905 344.268 49.8925 344.718 50.9725H344.862V45.8785H347.544V59.0005H344.988L344.862 57.3985H344.718C344.268 58.4605 343.116 59.1805 341.694 59.1805ZM342.666 56.9845C344.07 56.9845 344.844 55.9405 344.844 54.6625V53.7085C344.844 52.4305 344.07 51.3865 342.666 51.3865C341.388 51.3865 340.524 52.2145 340.524 54.1765C340.524 56.1385 341.388 56.9845 342.666 56.9845Z" fill="#242528"/>
<path d="M513.917 59.1805C510.407 59.1805 508.355 57.1825 508.355 54.0505V45.8785H511.181V54.0145C511.181 55.8145 512.225 56.6605 513.935 56.6605C515.789 56.6605 516.689 55.6705 516.689 54.0145V45.8785H519.497V54.0505C519.497 57.2725 517.355 59.1805 513.917 59.1805ZM526.781 59.1805C523.199 59.1805 521.327 57.4345 521.309 54.8785H524.243C524.261 56.2105 525.179 56.9665 526.871 56.9665C528.311 56.9665 529.175 56.3725 529.175 55.3465C529.175 54.1225 528.023 53.9425 527.501 53.8345L525.755 53.4925C524.243 53.2045 521.597 52.5565 521.597 49.7125C521.597 47.3185 523.505 45.7165 526.727 45.7165C529.895 45.7165 531.749 47.2645 531.767 49.6045H528.905C528.815 48.3445 527.843 47.8945 526.637 47.8945C525.359 47.8945 524.585 48.4525 524.585 49.3525C524.585 50.4505 525.683 50.6665 526.439 50.8285L528.437 51.2065C530.363 51.5665 532.181 52.4845 532.181 55.0225C532.181 57.5605 530.147 59.1805 526.781 59.1805ZM534.268 59.0005V45.8785H539.884C543.808 45.8785 545.914 48.5425 545.914 52.4485C545.914 56.3545 543.79 59.0005 539.884 59.0005H534.268ZM537.094 56.5525H539.47C541.522 56.5525 542.944 55.4905 542.944 52.3945C542.944 49.3525 541.504 48.3265 539.47 48.3265H537.094V56.5525ZM550.873 59.0005V53.9605L546.013 45.8785H549.235L552.223 51.2065H552.367L555.409 45.8785H558.613L553.699 53.9605V59.0005H550.873ZM566.496 59.0005V48.3445H562.68V45.8785H573.21V48.3445H569.322V59.0005H566.496ZM572.339 54.1945C572.339 51.2245 574.139 49.1905 577.163 49.1905C580.043 49.1905 581.969 51.0805 581.969 54.1945C581.969 57.1645 580.187 59.1805 577.163 59.1805C574.283 59.1805 572.339 57.3085 572.339 54.1945ZM575.057 54.1945C575.057 56.0485 575.849 56.9845 577.163 56.9845C578.441 56.9845 579.269 56.1025 579.269 54.1765C579.269 52.3225 578.477 51.3865 577.163 51.3865C575.885 51.3865 575.057 52.2865 575.057 54.1945ZM583.691 59.0005V45.8785H586.391V53.2405L589.901 49.3705H593.213L589.505 53.2045L593.285 59.0005H590.153L587.615 55.0045L586.391 56.2285V59.0005H583.691ZM598.257 59.1805C595.233 59.1805 593.451 57.2185 593.451 54.2485C593.451 51.1525 595.341 49.1905 598.239 49.1905C601.029 49.1905 602.721 50.9545 602.721 53.6005C602.721 54.0505 602.685 54.5185 602.631 54.8065H596.115C596.133 56.3005 596.979 57.1105 598.275 57.1105C599.283 57.1105 600.003 56.6425 600.183 55.9585H602.721C602.487 57.8845 600.669 59.1805 598.257 59.1805ZM596.151 53.0965H600.111C600.075 51.9085 599.319 51.2605 598.185 51.2605C597.051 51.2605 596.277 51.9625 596.151 53.0965ZM604.451 59.0005V49.3705H607.007L607.115 51.0265H607.241C607.709 49.8385 608.843 49.1905 610.211 49.1905C612.155 49.1905 613.595 50.3065 613.595 53.0965V59.0005H610.931V53.6545C610.931 52.1425 610.409 51.4045 609.167 51.4045C607.853 51.4045 607.115 52.3945 607.115 53.6905V59.0005H604.451ZM623.417 59.0005V53.9605L618.557 45.8785H621.779L624.767 51.2065H624.911L627.953 45.8785H631.157L626.243 53.9605V59.0005H623.417ZM632.347 48.0925V45.8785H634.993V48.0925H632.347ZM632.347 59.0005V49.3705H634.993V59.0005H632.347ZM641.516 59.1805C638.492 59.1805 636.71 57.2185 636.71 54.2485C636.71 51.1525 638.6 49.1905 641.498 49.1905C644.288 49.1905 645.98 50.9545 645.98 53.6005C645.98 54.0505 645.944 54.5185 645.89 54.8065H639.374C639.392 56.3005 640.238 57.1105 641.534 57.1105C642.542 57.1105 643.262 56.6425 643.442 55.9585H645.98C645.746 57.8845 643.928 59.1805 641.516 59.1805ZM639.41 53.0965H643.37C643.334 51.9085 642.578 51.2605 641.444 51.2605C640.31 51.2605 639.536 51.9625 639.41 53.0965ZM647.711 59.0005V45.8785H650.357V59.0005H647.711ZM655.98 59.1805C653.64 59.1805 652.074 57.5065 652.074 54.1765C652.074 50.8465 653.64 49.1905 655.98 49.1905C657.402 49.1905 658.554 49.8925 659.004 50.9725H659.148V45.8785H661.83V59.0005H659.274L659.148 57.3985H659.004C658.554 58.4605 657.402 59.1805 655.98 59.1805ZM656.952 56.9845C658.356 56.9845 659.13 55.9405 659.13 54.6625V53.7085C659.13 52.4305 658.356 51.3865 656.952 51.3865C655.674 51.3865 654.81 52.2145 654.81 54.1765C654.81 56.1385 655.674 56.9845 656.952 56.9845Z" fill="#242528"/>
<rect x="444" y="87.0005" width="280" height="320" fill="#122A5F"/>
<rect x="444" y="80.0005" width="280" height="7" fill="#FF966C"/>
<rect x="444" y="423" width="16" height="16" fill="#FF966C"/>
<path d="M468.54 433.698V431.484H475.02V433.698H468.54ZM480.995 438.108C478.025 438.108 476.135 435.678 476.135 431.448C476.135 427.11 478.151 424.86 481.049 424.86C484.001 424.86 485.873 427.272 485.873 431.484C485.873 435.858 483.857 438.108 480.995 438.108ZM480.977 435.768C482.615 435.768 483.083 434.076 483.083 431.556C483.083 428.19 482.255 427.182 481.031 427.182C479.393 427.182 478.925 428.874 478.925 431.376C478.925 434.688 479.735 435.768 480.977 435.768ZM486.848 438V435.174H489.35V438H486.848ZM493.217 438V429.36H489.815V427.326H490.319C492.011 427.326 493.217 426.426 493.379 425.022H495.881V438H493.217ZM503.02 438.108C500.05 438.108 498.16 435.678 498.16 431.448C498.16 427.11 500.176 424.86 503.074 424.86C506.026 424.86 507.898 427.272 507.898 431.484C507.898 435.858 505.882 438.108 503.02 438.108ZM503.002 435.768C504.64 435.768 505.108 434.076 505.108 431.556C505.108 428.19 504.28 427.182 503.056 427.182C501.418 427.182 500.95 428.874 500.95 431.376C500.95 434.688 501.76 435.768 503.002 435.768ZM512.497 431.304C510.607 431.304 509.257 429.954 509.257 427.992C509.257 426.084 510.553 424.716 512.497 424.716C514.459 424.716 515.773 426.084 515.773 428.01C515.773 429.918 514.441 431.304 512.497 431.304ZM511.597 438L519.931 424.878H521.335L512.983 438H511.597ZM512.497 429.72C513.415 429.72 514.009 428.982 514.009 427.974C514.009 426.984 513.397 426.3 512.497 426.3C511.633 426.3 511.021 426.984 511.021 427.974C511.021 428.982 511.597 429.72 512.497 429.72ZM520.273 438.18C518.383 438.18 517.015 436.83 517.015 434.868C517.015 432.978 518.329 431.592 520.273 431.592C522.235 431.592 523.513 432.978 523.513 434.886C523.513 436.812 522.199 438.18 520.273 438.18ZM520.273 436.596C521.173 436.596 521.785 435.876 521.785 434.85C521.785 433.86 521.155 433.158 520.273 433.158C519.391 433.158 518.761 433.86 518.761 434.85C518.761 435.876 519.373 436.596 520.273 436.596ZM530.036 438V424.878H539.162V426.66H532.034V430.476H538.28V432.15H532.034V436.218H539.162V438H530.036ZM547.868 441.006V436.29H547.724C547.274 437.424 546.032 438.18 544.556 438.18C542.198 438.18 540.614 436.47 540.614 433.266C540.614 430.044 542.198 428.352 544.556 428.352C546.032 428.352 547.274 429.09 547.724 430.242H547.868L547.958 428.532H549.758V441.006H547.868ZM545.168 436.542C546.77 436.542 547.85 435.39 547.85 433.824V432.69C547.85 431.106 546.77 429.972 545.168 429.972C543.602 429.972 542.558 430.998 542.558 433.266C542.558 435.534 543.602 436.542 545.168 436.542ZM555.646 438.18C553.558 438.18 552.298 436.92 552.298 434.418V428.532H554.206V433.986C554.206 435.714 554.854 436.542 556.276 436.542C557.788 436.542 558.742 435.408 558.742 433.626V428.532H560.632V438H558.814L558.724 436.29H558.598C558.148 437.496 557.032 438.18 555.646 438.18ZM563.252 427.002V424.878H565.142V427.002H563.252ZM563.252 438V428.532H565.142V438H563.252ZM570.577 438.18C569.227 438.18 568.237 437.622 568.237 435.912V430.116H566.635V428.532H568.237V425.922L570.127 425.472V428.532H572.215V430.116H570.127V435.336C570.127 436.218 570.343 436.542 571.225 436.542C571.675 436.542 571.999 436.434 572.215 436.308V437.856C571.855 438.036 571.207 438.18 570.577 438.18ZM574.423 441.186C573.991 441.186 573.559 441.096 573.307 440.952V439.386C573.595 439.53 573.901 439.584 574.135 439.584C574.981 439.584 575.521 439.224 575.863 438.342L576.115 437.64L572.569 428.532H574.621L577.069 435.696H577.177L579.445 428.532H581.479L577.897 438.54C577.141 440.664 575.899 441.186 574.423 441.186ZM587.077 438V424.878H593.251C595.789 424.878 597.481 426.066 597.481 428.55C597.481 430.08 596.725 431.322 595.267 431.772V431.898C596.617 432.114 597.193 432.978 597.193 434.346V436.56C597.193 437.028 597.193 437.514 597.391 438H595.339C595.177 437.658 595.141 437.226 595.141 436.452V434.706C595.141 433.482 594.709 432.834 593.179 432.834H589.075V438H587.077ZM589.075 431.106H592.891C594.529 431.106 595.375 430.314 595.375 428.838C595.375 427.254 594.385 426.642 592.891 426.642H589.075V431.106ZM603.897 438.18C601.053 438.18 599.307 436.254 599.307 433.302C599.307 430.314 601.089 428.352 603.915 428.352C606.489 428.352 608.145 430.044 608.145 432.6C608.145 433.032 608.109 433.428 608.055 433.68H601.233C601.305 435.57 602.331 436.596 603.897 436.596C605.175 436.596 606.075 435.984 606.291 435.102H608.145C607.875 436.938 606.147 438.18 603.897 438.18ZM601.287 432.33H606.219C606.201 430.782 605.283 429.954 603.843 429.954C602.475 429.954 601.467 430.836 601.287 432.33ZM612.8 438.18C611.45 438.18 610.46 437.622 610.46 435.912V430.116H608.858V428.532H610.46V425.922L612.35 425.472V428.532H614.438V430.116H612.35V435.336C612.35 436.218 612.566 436.542 613.448 436.542C613.898 436.542 614.222 436.434 614.438 436.308V437.856C614.078 438.036 613.43 438.18 612.8 438.18ZM619.49 438.18C617.402 438.18 616.142 436.92 616.142 434.418V428.532H618.05V433.986C618.05 435.714 618.698 436.542 620.12 436.542C621.632 436.542 622.586 435.408 622.586 433.626V428.532H624.476V438H622.658L622.568 436.29H622.442C621.992 437.496 620.876 438.18 619.49 438.18ZM627.095 438V428.532H628.805L628.931 430.35H629.021C629.507 429.072 630.515 428.388 631.829 428.388C632.135 428.388 632.369 428.424 632.567 428.496V430.35C632.351 430.278 632.117 430.242 631.865 430.242C630.263 430.242 629.003 431.286 629.003 433.518V438H627.095ZM634.091 438V428.532H635.909L635.999 430.242H636.125C636.593 429.036 637.709 428.352 639.131 428.352C641.111 428.352 642.515 429.504 642.515 432.186V438H640.607V432.546C640.607 430.818 639.941 429.99 638.501 429.99C636.953 429.99 635.999 431.124 635.999 432.924V438H634.091ZM651.604 438.18C649.678 438.18 648.4 437.1 648.4 435.444C648.4 433.5 649.804 432.456 652.036 432.456H654.574V431.7C654.574 430.656 653.98 429.972 652.576 429.972C651.19 429.972 650.524 430.566 650.524 431.43H648.706C648.706 429.468 650.308 428.352 652.666 428.352C655.006 428.352 656.482 429.468 656.482 431.754V436.164C656.482 436.596 656.626 436.776 656.914 436.776C657.094 436.776 657.31 436.722 657.454 436.578V437.892C657.166 438.09 656.716 438.18 656.338 438.18C655.312 438.18 654.718 437.676 654.718 436.65V436.524H654.61C654.232 437.532 653.008 438.18 651.604 438.18ZM652.234 436.632C653.782 436.632 654.574 435.696 654.574 434.742V433.752H652.234C651.136 433.752 650.38 434.13 650.38 435.21C650.38 436.128 651.01 436.632 652.234 436.632ZM659.017 438V428.532H660.835L660.925 430.242H661.051C661.519 429.036 662.635 428.352 664.057 428.352C666.037 428.352 667.441 429.504 667.441 432.186V438H665.533V432.546C665.533 430.818 664.867 429.99 663.427 429.99C661.879 429.99 660.925 431.124 660.925 432.924V438H659.017ZM673.298 438.162C670.94 438.162 669.356 436.452 669.356 433.266C669.356 430.044 670.94 428.352 673.298 428.352C674.774 428.352 676.016 429.09 676.466 430.242H676.61V424.878H678.5V438H676.7L676.61 436.272H676.466C676.016 437.406 674.774 438.162 673.298 438.162ZM673.91 436.542C675.512 436.542 676.592 435.39 676.592 433.824V432.69C676.592 431.124 675.512 429.972 673.91 429.972C672.344 429.972 671.3 430.998 671.3 433.266C671.3 435.516 672.344 436.542 673.91 436.542ZM685.532 438V424.878H694.604V426.66H687.53V430.674H693.884V432.366H687.53V438H685.532ZM700.208 438.18C697.364 438.18 695.618 436.254 695.618 433.302C695.618 430.314 697.4 428.352 700.226 428.352C702.8 428.352 704.456 430.044 704.456 432.6C704.456 433.032 704.42 433.428 704.366 433.68H697.544C697.616 435.57 698.642 436.596 700.208 436.596C701.486 436.596 702.386 435.984 702.602 435.102H704.456C704.186 436.938 702.458 438.18 700.208 438.18ZM697.598 432.33H702.53C702.512 430.782 701.594 429.954 700.154 429.954C698.786 429.954 697.778 430.836 697.598 432.33ZM710.42 438.18C707.576 438.18 705.83 436.254 705.83 433.302C705.83 430.314 707.612 428.352 710.438 428.352C713.012 428.352 714.668 430.044 714.668 432.6C714.668 433.032 714.632 433.428 714.578 433.68H707.756C707.828 435.57 708.854 436.596 710.42 436.596C711.698 436.596 712.598 435.984 712.814 435.102H714.668C714.398 436.938 712.67 438.18 710.42 438.18ZM707.81 432.33H712.742C712.724 430.782 711.806 429.954 710.366 429.954C708.998 429.954 707.99 430.836 707.81 432.33ZM719.967 438.18C717.501 438.18 716.007 436.938 716.007 435.102H717.879C717.879 436.128 718.671 436.758 720.003 436.758C721.191 436.758 721.911 436.218 721.911 435.354C721.911 434.472 721.173 434.274 720.705 434.184L718.797 433.806C716.907 433.464 716.241 432.492 716.241 431.25C716.241 429.45 717.717 428.352 719.949 428.352C722.235 428.352 723.621 429.54 723.639 431.268H721.803C721.749 430.26 721.047 429.792 719.931 429.792C718.779 429.792 718.149 430.278 718.149 431.052C718.149 432.042 719.085 432.204 719.571 432.294L721.335 432.6C723.171 432.942 723.873 433.914 723.873 435.282C723.873 437.064 722.289 438.18 719.967 438.18Z" fill="#242528"/>
<rect x="124" y="80.0005" width="280" height="327" fill="#7E8EB0"/>
<path d="M240.813 129.32C236.301 129.32 233.101 126.408 233.133 122.024H236.589C236.589 124.456 238.253 126.312 240.845 126.312C243.565 126.312 245.357 124.424 245.357 121.512C245.357 118.664 243.597 116.584 240.813 116.584C238.925 116.584 237.325 117.544 236.781 118.824H233.581L234.125 105.928H247.629V108.904H237.101L236.813 115.24L236.941 115.272C237.869 114.344 239.725 113.672 241.453 113.672C245.837 113.672 248.877 116.904 248.877 121.416C248.877 126.088 245.645 129.32 240.813 129.32ZM252.23 129V124.84H255.782V129H252.23ZM263.024 129V112.52H256.976V109.96H257.744C260.816 109.96 262.896 108.456 263.216 105.928H266.352V129H263.024ZM276.729 117.064C273.369 117.064 271.065 114.664 271.065 111.176C271.065 107.784 273.337 105.416 276.729 105.416C280.153 105.416 282.425 107.784 282.425 111.208C282.425 114.664 280.121 117.064 276.729 117.064ZM275.193 129L289.977 105.672H292.377L277.561 129H275.193ZM276.729 114.824C278.617 114.824 279.897 113.32 279.897 111.176C279.897 109.064 278.617 107.624 276.729 107.624C274.873 107.624 273.593 109.064 273.593 111.176C273.593 113.32 274.841 114.824 276.729 114.824ZM290.425 129.32C287.065 129.32 284.729 126.952 284.729 123.464C284.729 120.072 287.033 117.64 290.425 117.64C293.849 117.64 296.089 120.072 296.089 123.496C296.089 126.92 293.817 129.32 290.425 129.32ZM290.425 127.08C292.313 127.08 293.593 125.576 293.593 123.432C293.593 121.352 292.281 119.848 290.425 119.848C288.569 119.848 287.257 121.352 287.257 123.432C287.257 125.576 288.569 127.08 290.425 127.08Z" fill="white"/>
<path d="M557.516 136.32C553.004 136.32 549.804 133.408 549.836 129.024H553.292C553.292 131.456 554.956 133.312 557.548 133.312C560.268 133.312 562.06 131.424 562.06 128.512C562.06 125.664 560.3 123.584 557.516 123.584C555.628 123.584 554.028 124.544 553.484 125.824H550.284L550.828 112.928H564.332V115.904H553.804L553.516 122.24L553.644 122.272C554.572 121.344 556.428 120.672 558.156 120.672C562.54 120.672 565.58 123.904 565.58 128.416C565.58 133.088 562.348 136.32 557.516 136.32ZM568.933 136V131.84H572.485V136H568.933ZM582.64 136.192C577.872 136.192 574.448 132.288 574.448 124.384C574.448 116.416 577.968 112.64 582.672 112.64C587.408 112.64 590.8 116.512 590.8 124.384C590.8 132.416 587.28 136.192 582.64 136.192ZM582.608 133.184C585.904 133.184 587.248 129.888 587.248 124.448C587.248 118.368 585.584 115.648 582.64 115.648C579.344 115.648 578 118.912 578 124.32C578 130.336 579.632 133.184 582.608 133.184ZM599.026 124.064C595.666 124.064 593.362 121.664 593.362 118.176C593.362 114.784 595.634 112.416 599.026 112.416C602.45 112.416 604.722 114.784 604.722 118.208C604.722 121.664 602.418 124.064 599.026 124.064ZM597.49 136L612.274 112.672H614.674L599.858 136H597.49ZM599.026 121.824C600.914 121.824 602.194 120.32 602.194 118.176C602.194 116.064 600.914 114.624 599.026 114.624C597.17 114.624 595.89 116.064 595.89 118.176C595.89 120.32 597.138 121.824 599.026 121.824ZM612.722 136.32C609.362 136.32 607.026 133.952 607.026 130.464C607.026 127.072 609.33 124.64 612.722 124.64C616.146 124.64 618.386 127.072 618.386 130.496C618.386 133.92 616.114 136.32 612.722 136.32ZM612.722 134.08C614.61 134.08 615.89 132.576 615.89 130.432C615.89 128.352 614.578 126.848 612.722 126.848C610.866 126.848 609.554 128.352 609.554 130.432C609.554 132.576 610.866 134.08 612.722 134.08Z" fill="white"/>
</svg>
