<svg width="812" height="480" viewBox="0 0 812 480" fill="none" xmlns="http://www.w3.org/2000/svg">
<path d="M12.32 75V65.73H8.918V64.29H9.35C11.078 64.29 12.248 63.444 12.428 62.022H14.192V75H12.32ZM21.2712 75.108C18.5892 75.108 16.6632 72.912 16.6632 68.466C16.6632 63.984 18.6432 61.86 21.2892 61.86C23.9532 61.86 25.8612 64.038 25.8612 68.466C25.8612 72.984 23.8812 75.108 21.2712 75.108ZM21.2532 73.416C23.1072 73.416 23.8632 71.562 23.8632 68.502C23.8632 65.082 22.9272 63.552 21.2712 63.552C19.4172 63.552 18.6612 65.388 18.6612 68.43C18.6612 71.814 19.5792 73.416 21.2532 73.416ZM31.7302 75.108C29.0482 75.108 27.1222 72.912 27.1222 68.466C27.1222 63.984 29.1022 61.86 31.7482 61.86C34.4122 61.86 36.3202 64.038 36.3202 68.466C36.3202 72.984 34.3402 75.108 31.7302 75.108ZM31.7122 73.416C33.5662 73.416 34.3222 71.562 34.3222 68.502C34.3222 65.082 33.3862 63.552 31.7302 63.552C29.8762 63.552 29.1202 65.388 29.1202 68.43C29.1202 71.814 30.0382 73.416 31.7122 73.416ZM40.9472 68.286C39.0572 68.286 37.7612 66.936 37.7612 64.974C37.7612 63.066 39.0392 61.734 40.9472 61.734C42.8732 61.734 44.1512 63.066 44.1512 64.992C44.1512 66.936 42.8552 68.286 40.9472 68.286ZM40.0832 75L48.3992 61.878H49.7492L41.4152 75H40.0832ZM40.9472 67.026C42.0092 67.026 42.7292 66.18 42.7292 64.974C42.7292 63.786 42.0092 62.976 40.9472 62.976C39.9032 62.976 39.1832 63.786 39.1832 64.974C39.1832 66.18 39.8852 67.026 40.9472 67.026ZM48.6512 75.18C46.7612 75.18 45.4472 73.848 45.4472 71.886C45.4472 69.978 46.7432 68.61 48.6512 68.61C50.5772 68.61 51.8372 69.978 51.8372 71.904C51.8372 73.83 50.5592 75.18 48.6512 75.18ZM48.6512 73.92C49.7132 73.92 50.4332 73.074 50.4332 71.868C50.4332 70.698 49.6952 69.852 48.6512 69.852C47.6072 69.852 46.8692 70.698 46.8692 71.868C46.8692 73.074 47.6072 73.92 48.6512 73.92Z" fill="#242528"/>
<path d="M13.4 139.144C10.664 139.144 8.81 137.794 8.81 135.598C8.81 134.104 9.728 132.88 11.096 132.52V132.412C9.836 131.98 9.026 130.81 9.026 129.424C9.026 127.3 10.7 125.878 13.4 125.878C16.1 125.878 17.792 127.336 17.792 129.46C17.792 130.882 17 132.016 15.758 132.412V132.52C17.09 132.79 17.99 134.014 17.99 135.598C17.99 137.776 16.154 139.144 13.4 139.144ZM13.4 131.728C14.93 131.728 15.83 130.918 15.83 129.622C15.83 128.272 14.858 127.498 13.4 127.498C11.87 127.498 11.006 128.344 11.006 129.622C11.006 130.99 11.978 131.728 13.4 131.728ZM13.4 137.488C15.002 137.488 15.938 136.678 15.938 135.364C15.938 134.014 14.948 133.258 13.4 133.258C11.78 133.258 10.88 134.068 10.88 135.364C10.88 136.75 11.888 137.488 13.4 137.488ZM24.0134 139.108C21.3314 139.108 19.4054 136.912 19.4054 132.466C19.4054 127.984 21.3854 125.86 24.0314 125.86C26.6954 125.86 28.6034 128.038 28.6034 132.466C28.6034 136.984 26.6234 139.108 24.0134 139.108ZM23.9954 137.416C25.8494 137.416 26.6054 135.562 26.6054 132.502C26.6054 129.082 25.6694 127.552 24.0134 127.552C22.1594 127.552 21.4034 129.388 21.4034 132.43C21.4034 135.814 22.3214 137.416 23.9954 137.416ZM33.2304 132.286C31.3404 132.286 30.0444 130.936 30.0444 128.974C30.0444 127.066 31.3224 125.734 33.2304 125.734C35.1564 125.734 36.4344 127.066 36.4344 128.992C36.4344 130.936 35.1384 132.286 33.2304 132.286ZM32.3664 139L40.6824 125.878H42.0324L33.6984 139H32.3664ZM33.2304 131.026C34.2924 131.026 35.0124 130.18 35.0124 128.974C35.0124 127.786 34.2924 126.976 33.2304 126.976C32.1864 126.976 31.4664 127.786 31.4664 128.974C31.4664 130.18 32.1684 131.026 33.2304 131.026ZM40.9344 139.18C39.0444 139.18 37.7304 137.848 37.7304 135.886C37.7304 133.978 39.0264 132.61 40.9344 132.61C42.8604 132.61 44.1204 133.978 44.1204 135.904C44.1204 137.83 42.8424 139.18 40.9344 139.18ZM40.9344 137.92C41.9964 137.92 42.7164 137.074 42.7164 135.868C42.7164 134.698 41.9784 133.852 40.9344 133.852C39.8904 133.852 39.1524 134.698 39.1524 135.868C39.1524 137.074 39.8904 137.92 40.9344 137.92Z" fill="#242528"/>
<path d="M13.436 203.18C10.16 203.18 8.828 200.516 8.828 196.556C8.828 192.542 10.16 189.86 13.562 189.86C15.956 189.86 17.504 191.156 17.702 193.226H15.776C15.596 192.056 14.642 191.552 13.544 191.552C11.456 191.552 10.7 193.37 10.826 196.25H10.916C11.492 195.098 12.626 194.558 13.922 194.558C16.226 194.558 17.846 196.25 17.846 198.806C17.846 201.452 16.118 203.18 13.436 203.18ZM13.508 201.488C14.948 201.488 15.884 200.426 15.884 198.77C15.884 197.06 14.912 196.088 13.508 196.088C11.906 196.088 11.078 197.366 11.078 198.806C11.078 200.426 12.05 201.488 13.508 201.488ZM23.8552 203.108C21.1732 203.108 19.2472 200.912 19.2472 196.466C19.2472 191.984 21.2272 189.86 23.8732 189.86C26.5372 189.86 28.4452 192.038 28.4452 196.466C28.4452 200.984 26.4652 203.108 23.8552 203.108ZM23.8372 201.416C25.6912 201.416 26.4472 199.562 26.4472 196.502C26.4472 193.082 25.5112 191.552 23.8552 191.552C22.0012 191.552 21.2452 193.388 21.2452 196.43C21.2452 199.814 22.1632 201.416 23.8372 201.416ZM33.0722 196.286C31.1822 196.286 29.8862 194.936 29.8862 192.974C29.8862 191.066 31.1642 189.734 33.0722 189.734C34.9982 189.734 36.2762 191.066 36.2762 192.992C36.2762 194.936 34.9802 196.286 33.0722 196.286ZM32.2082 203L40.5242 189.878H41.8742L33.5402 203H32.2082ZM33.0722 195.026C34.1342 195.026 34.8542 194.18 34.8542 192.974C34.8542 191.786 34.1342 190.976 33.0722 190.976C32.0282 190.976 31.3082 191.786 31.3082 192.974C31.3082 194.18 32.0102 195.026 33.0722 195.026ZM40.7762 203.18C38.8862 203.18 37.5722 201.848 37.5722 199.886C37.5722 197.978 38.8682 196.61 40.7762 196.61C42.7022 196.61 43.9622 197.978 43.9622 199.904C43.9622 201.83 42.6842 203.18 40.7762 203.18ZM40.7762 201.92C41.8382 201.92 42.5582 201.074 42.5582 199.868C42.5582 198.698 41.8202 197.852 40.7762 197.852C39.7322 197.852 38.9942 198.698 38.9942 199.868C38.9942 201.074 39.7322 201.92 40.7762 201.92Z" fill="#242528"/>
<path d="M14.786 267V263.904H8.486V262.338L13.994 254.022H16.712V262.302H18.314L18.296 263.904H16.712V267H14.786ZM10.448 262.302H14.786V255.66L10.448 262.302ZM24.0837 267.108C21.4017 267.108 19.4757 264.912 19.4757 260.466C19.4757 255.984 21.4557 253.86 24.1017 253.86C26.7657 253.86 28.6737 256.038 28.6737 260.466C28.6737 264.984 26.6937 267.108 24.0837 267.108ZM24.0657 265.416C25.9197 265.416 26.6757 263.562 26.6757 260.502C26.6757 257.082 25.7397 255.552 24.0837 255.552C22.2297 255.552 21.4737 257.388 21.4737 260.43C21.4737 263.814 22.3917 265.416 24.0657 265.416ZM33.3007 260.286C31.4107 260.286 30.1147 258.936 30.1147 256.974C30.1147 255.066 31.3927 253.734 33.3007 253.734C35.2267 253.734 36.5047 255.066 36.5047 256.992C36.5047 258.936 35.2087 260.286 33.3007 260.286ZM32.4367 267L40.7527 253.878H42.1027L33.7687 267H32.4367ZM33.3007 259.026C34.3627 259.026 35.0827 258.18 35.0827 256.974C35.0827 255.786 34.3627 254.976 33.3007 254.976C32.2567 254.976 31.5367 255.786 31.5367 256.974C31.5367 258.18 32.2387 259.026 33.3007 259.026ZM41.0047 267.18C39.1147 267.18 37.8007 265.848 37.8007 263.886C37.8007 261.978 39.0967 260.61 41.0047 260.61C42.9307 260.61 44.1907 261.978 44.1907 263.904C44.1907 265.83 42.9127 267.18 41.0047 267.18ZM41.0047 265.92C42.0667 265.92 42.7867 265.074 42.7867 263.868C42.7867 262.698 42.0487 261.852 41.0047 261.852C39.9607 261.852 39.2227 262.698 39.2227 263.868C39.2227 265.074 39.9607 265.92 41.0047 265.92Z" fill="#242528"/>
<path d="M8.792 331V330.55C8.792 325.564 15.272 324.934 15.272 321.658C15.272 320.308 14.39 319.534 13.058 319.534C11.582 319.534 10.754 320.488 10.844 321.964H8.936C8.846 319.498 10.592 317.86 13.184 317.86C15.632 317.86 17.27 319.354 17.27 321.568C17.27 325.402 11.78 326.68 11.078 329.326C11.474 329.308 11.888 329.308 12.284 329.308H17.414V331H8.792ZM23.4157 331.108C20.7337 331.108 18.8077 328.912 18.8077 324.466C18.8077 319.984 20.7877 317.86 23.4337 317.86C26.0977 317.86 28.0057 320.038 28.0057 324.466C28.0057 328.984 26.0257 331.108 23.4157 331.108ZM23.3977 329.416C25.2517 329.416 26.0077 327.562 26.0077 324.502C26.0077 321.082 25.0717 319.552 23.4157 319.552C21.5617 319.552 20.8057 321.388 20.8057 324.43C20.8057 327.814 21.7237 329.416 23.3977 329.416ZM32.6327 324.286C30.7427 324.286 29.4467 322.936 29.4467 320.974C29.4467 319.066 30.7247 317.734 32.6327 317.734C34.5587 317.734 35.8367 319.066 35.8367 320.992C35.8367 322.936 34.5407 324.286 32.6327 324.286ZM31.7687 331L40.0847 317.878H41.4347L33.1007 331H31.7687ZM32.6327 323.026C33.6947 323.026 34.4147 322.18 34.4147 320.974C34.4147 319.786 33.6947 318.976 32.6327 318.976C31.5887 318.976 30.8687 319.786 30.8687 320.974C30.8687 322.18 31.5707 323.026 32.6327 323.026ZM40.3367 331.18C38.4467 331.18 37.1327 329.848 37.1327 327.886C37.1327 325.978 38.4287 324.61 40.3367 324.61C42.2627 324.61 43.5227 325.978 43.5227 327.904C43.5227 329.83 42.2447 331.18 40.3367 331.18ZM40.3367 329.92C41.3987 329.92 42.1187 329.074 42.1187 327.868C42.1187 326.698 41.3807 325.852 40.3367 325.852C39.2927 325.852 38.5547 326.698 38.5547 327.868C38.5547 329.074 39.2927 329.92 40.3367 329.92Z" fill="#242528"/>
<path d="M13.238 395.108C10.556 395.108 8.63 392.912 8.63 388.466C8.63 383.984 10.61 381.86 13.256 381.86C15.92 381.86 17.828 384.038 17.828 388.466C17.828 392.984 15.848 395.108 13.238 395.108ZM13.22 393.416C15.074 393.416 15.83 391.562 15.83 388.502C15.83 385.082 14.894 383.552 13.238 383.552C11.384 383.552 10.628 385.388 10.628 388.43C10.628 391.814 11.546 393.416 13.22 393.416ZM22.455 388.286C20.565 388.286 19.269 386.936 19.269 384.974C19.269 383.066 20.547 381.734 22.455 381.734C24.381 381.734 25.659 383.066 25.659 384.992C25.659 386.936 24.363 388.286 22.455 388.286ZM21.591 395L29.907 381.878H31.257L22.923 395H21.591ZM22.455 387.026C23.517 387.026 24.237 386.18 24.237 384.974C24.237 383.786 23.517 382.976 22.455 382.976C21.411 382.976 20.691 383.786 20.691 384.974C20.691 386.18 21.393 387.026 22.455 387.026ZM30.159 395.18C28.269 395.18 26.955 393.848 26.955 391.886C26.955 389.978 28.251 388.61 30.159 388.61C32.085 388.61 33.345 389.978 33.345 391.904C33.345 393.83 32.067 395.18 30.159 395.18ZM30.159 393.92C31.221 393.92 31.941 393.074 31.941 391.868C31.941 390.698 31.203 389.852 30.159 389.852C29.115 389.852 28.377 390.698 28.377 391.868C28.377 393.074 29.115 393.92 30.159 393.92Z" fill="#242528"/>
<line x1="60" y1="387.5" x2="804" y2="387.5" stroke="#AAABAE"/>
<line x1="60" y1="323.5" x2="804" y2="323.5" stroke="#AAABAE"/>
<line x1="60" y1="259.5" x2="804" y2="259.5" stroke="#AAABAE"/>
<line x1="60" y1="195.5" x2="804" y2="195.5" stroke="#AAABAE"/>
<line x1="60" y1="131.5" x2="804" y2="131.5" stroke="#AAABAE"/>
<line x1="60" y1="68.5" x2="804" y2="68.5" stroke="#AAABAE"/>
<path d="M241.018 51L245.59 37.878H249.01L253.582 51H250.774L249.874 48.318H244.708L243.808 51H241.018ZM245.392 46.14H249.19L247.354 40.74H247.246L245.392 46.14ZM258.356 51.18C255.764 51.18 254.144 49.884 254.144 47.976H256.772C256.772 48.822 257.42 49.272 258.428 49.272C259.364 49.272 259.868 48.876 259.868 48.264C259.868 47.562 259.274 47.436 258.842 47.346L257.114 47.04C255.08 46.698 254.378 45.654 254.378 44.286C254.378 42.396 255.998 41.19 258.428 41.19C260.804 41.19 262.334 42.414 262.388 44.214H259.76C259.742 43.458 259.22 43.098 258.356 43.098C257.528 43.098 257.042 43.44 257.042 44.034C257.042 44.79 257.798 44.898 258.302 44.988L259.904 45.258C261.848 45.6 262.586 46.644 262.586 48.084C262.586 50.028 260.894 51.18 258.356 51.18ZM267.954 51.18C265.362 51.18 263.742 49.884 263.742 47.976H266.37C266.37 48.822 267.018 49.272 268.026 49.272C268.962 49.272 269.466 48.876 269.466 48.264C269.466 47.562 268.872 47.436 268.44 47.346L266.712 47.04C264.678 46.698 263.976 45.654 263.976 44.286C263.976 42.396 265.596 41.19 268.026 41.19C270.402 41.19 271.932 42.414 271.986 44.214H269.358C269.34 43.458 268.818 43.098 267.954 43.098C267.126 43.098 266.64 43.44 266.64 44.034C266.64 44.79 267.396 44.898 267.9 44.988L269.502 45.258C271.446 45.6 272.184 46.644 272.184 48.084C272.184 50.028 270.492 51.18 267.954 51.18ZM278.145 51.18C275.121 51.18 273.339 49.218 273.339 46.248C273.339 43.152 275.229 41.19 278.127 41.19C280.917 41.19 282.609 42.954 282.609 45.6C282.609 46.05 282.573 46.518 282.519 46.806H276.003C276.021 48.3 276.867 49.11 278.163 49.11C279.171 49.11 279.891 48.642 280.071 47.958H282.609C282.375 49.884 280.557 51.18 278.145 51.18ZM276.039 45.096H279.999C279.963 43.908 279.207 43.26 278.073 43.26C276.939 43.26 276.165 43.962 276.039 45.096ZM287.404 51.18C285.802 51.18 284.704 50.514 284.704 48.534V43.53H283.138V41.37H284.704V38.94L287.368 38.346V41.37H289.438V43.53H287.368V47.85C287.368 48.804 287.674 48.984 288.448 48.984C288.862 48.984 289.186 48.876 289.438 48.75V50.802C288.97 51.018 288.178 51.18 287.404 51.18ZM294.672 51.18C292.08 51.18 290.46 49.884 290.46 47.976H293.088C293.088 48.822 293.736 49.272 294.744 49.272C295.68 49.272 296.184 48.876 296.184 48.264C296.184 47.562 295.59 47.436 295.158 47.346L293.43 47.04C291.396 46.698 290.694 45.654 290.694 44.286C290.694 42.396 292.314 41.19 294.744 41.19C297.12 41.19 298.65 42.414 298.704 44.214H296.076C296.058 43.458 295.536 43.098 294.672 43.098C293.844 43.098 293.358 43.44 293.358 44.034C293.358 44.79 294.114 44.898 294.618 44.988L296.22 45.258C298.164 45.6 298.902 46.644 298.902 48.084C298.902 50.028 297.21 51.18 294.672 51.18Z" fill="#242528"/>
<path d="M514.422 51V37.878H517.248V48.48H523.026V51H514.422ZM524.347 40.092V37.878H526.993V40.092H524.347ZM524.347 51V41.37H526.993V51H524.347ZM531.788 51.18C529.862 51.18 528.584 50.082 528.584 48.426C528.584 46.302 530.204 45.366 532.4 45.366H534.686V44.682C534.686 43.854 534.2 43.314 533.084 43.314C531.968 43.314 531.446 43.8 531.446 44.52H528.962C528.926 42.468 530.564 41.19 533.246 41.19C535.82 41.19 537.35 42.342 537.35 44.772V48.75C537.35 49.128 537.458 49.29 537.728 49.29C537.89 49.29 538.07 49.236 538.214 49.128V50.802C537.854 51.072 537.224 51.18 536.756 51.18C535.496 51.18 534.83 50.586 534.83 49.578H534.722C534.38 50.55 533.21 51.18 531.788 51.18ZM532.814 49.146C534.002 49.146 534.686 48.498 534.686 47.616V46.914H532.85C531.86 46.914 531.32 47.256 531.32 48.048C531.32 48.768 531.842 49.146 532.814 49.146ZM545.402 51.18C543.962 51.18 542.81 50.478 542.378 49.398H542.216L542.108 51H539.552V37.878H542.216V42.972H542.378C542.81 41.91 543.962 41.19 545.402 41.19C547.724 41.19 549.272 42.864 549.272 46.194C549.272 49.524 547.724 51.18 545.402 51.18ZM544.412 48.984C545.708 48.984 546.554 48.156 546.554 46.194C546.554 44.214 545.708 43.386 544.412 43.386C543.008 43.386 542.234 44.43 542.234 45.708V46.662C542.234 47.94 543.008 48.984 544.412 48.984ZM550.996 40.092V37.878H553.642V40.092H550.996ZM550.996 51V41.37H553.642V51H550.996ZM555.953 51V37.878H558.599V51H555.953ZM560.91 40.092V37.878H563.556V40.092H560.91ZM560.91 51V41.37H563.556V51H560.91ZM572.761 40.092V37.878H575.407V40.092H572.761ZM569.107 51.18C567.505 51.18 566.407 50.514 566.407 48.534V43.53H564.841V41.37H566.407V38.94L569.071 38.346V41.37H571.141V43.53H569.071V47.85C569.071 48.804 569.377 48.984 570.151 48.984C570.565 48.984 570.889 48.876 571.141 48.75V50.802C570.673 51.018 569.881 51.18 569.107 51.18ZM572.761 51V41.37H575.407V51H572.761ZM581.927 51.18C578.903 51.18 577.121 49.218 577.121 46.248C577.121 43.152 579.011 41.19 581.909 41.19C584.699 41.19 586.391 42.954 586.391 45.6C586.391 46.05 586.355 46.518 586.301 46.806H579.785C579.803 48.3 580.649 49.11 581.945 49.11C582.953 49.11 583.673 48.642 583.853 47.958H586.391C586.157 49.884 584.339 51.18 581.927 51.18ZM579.821 45.096H583.781C583.745 43.908 582.989 43.26 581.854 43.26C580.721 43.26 579.947 43.962 579.821 45.096ZM591.739 51.18C589.147 51.18 587.527 49.884 587.527 47.976H590.155C590.155 48.822 590.803 49.272 591.811 49.272C592.747 49.272 593.251 48.876 593.251 48.264C593.251 47.562 592.657 47.436 592.225 47.346L590.497 47.04C588.463 46.698 587.761 45.654 587.761 44.286C587.761 42.396 589.381 41.19 591.811 41.19C594.187 41.19 595.717 42.414 595.771 44.214H593.143C593.125 43.458 592.603 43.098 591.739 43.098C590.911 43.098 590.425 43.44 590.425 44.034C590.425 44.79 591.181 44.898 591.685 44.988L593.287 45.258C595.231 45.6 595.969 46.644 595.969 48.084C595.969 50.028 594.277 51.18 591.739 51.18ZM605.366 51.18C602.99 51.18 601.226 49.884 601.226 47.58C601.226 46.086 602.18 44.682 603.926 43.926C602.972 42.99 602.468 42.018 602.468 40.974C602.468 39.012 604.088 37.698 606.302 37.698C608.354 37.698 609.83 38.994 609.83 40.866C609.83 42.342 608.858 43.53 607.382 44.106V44.214L609.506 46.464C609.848 45.78 610.046 44.826 610.064 43.944H613.394V45.924H611.918C611.774 46.734 611.45 47.544 611.036 48.156L613.7 51H610.46L609.254 49.686C608.354 50.676 606.896 51.18 605.366 51.18ZM606.014 42.81H606.14C607.04 42.432 607.508 41.784 607.508 41.082C607.508 40.38 607.022 39.876 606.284 39.876C605.546 39.876 605.024 40.416 605.024 41.1C605.024 41.73 605.438 42.288 606.014 42.81ZM605.798 48.966C606.662 48.966 607.346 48.642 607.76 48.066L605.276 45.366C604.448 45.708 603.89 46.374 603.89 47.274C603.89 48.336 604.646 48.966 605.798 48.966ZM618.906 51V37.878H628.428V40.326H621.732V43.224H627.546V45.51H621.732V48.552H628.464V51H618.906ZM636.771 54.006V49.398H636.627C636.177 50.478 635.025 51.18 633.603 51.18C631.263 51.18 629.697 49.524 629.697 46.176C629.697 42.846 631.263 41.19 633.603 41.19C635.025 41.19 636.177 41.892 636.627 42.972H636.771L636.897 41.37H639.453V54.006H636.771ZM634.575 48.984C635.979 48.984 636.753 47.94 636.753 46.662V45.708C636.753 44.412 635.979 43.386 634.575 43.386C633.297 43.386 632.433 44.214 632.433 46.176C632.433 48.156 633.297 48.984 634.575 48.984ZM645.028 51.18C642.832 51.18 641.644 49.866 641.644 47.4V41.37H644.308V46.716C644.308 48.228 644.83 48.984 646.054 48.984C647.35 48.984 648.088 47.976 648.088 46.68V41.37H650.752V51H648.196L648.07 49.344H647.944C647.494 50.55 646.378 51.18 645.028 51.18ZM653.054 40.092V37.878H655.7V40.092H653.054ZM653.054 51V41.37H655.7V51H653.054ZM661.251 51.18C659.649 51.18 658.551 50.514 658.551 48.534V43.53H656.985V41.37H658.551V38.94L661.215 38.346V41.37H663.285V43.53H661.215V47.85C661.215 48.804 661.521 48.984 662.295 48.984C662.709 48.984 663.033 48.876 663.285 48.75V50.802C662.817 51.018 662.025 51.18 661.251 51.18ZM665.766 54.168C665.244 54.168 664.668 54.042 664.38 53.862V51.774C664.686 51.9 664.974 51.954 665.262 51.954C666.126 51.954 666.684 51.666 666.972 50.874L667.116 50.478L663.57 41.37H666.504L668.52 47.922H668.646L670.518 41.37H673.38L669.978 51.09C669.114 53.538 667.584 54.168 665.766 54.168Z" fill="#242528"/>
<rect x="132" y="68" width="280" height="320" fill="#7E8EB0"/>
<rect x="452" y="68" width="280" height="303" fill="#122A5F"/>
<rect x="452" y="371" width="280" height="17" fill="#FF966C"/>
<rect x="132" y="404" width="16" height="16" fill="#7E8EB0"/>
<path d="M160.158 419V410.36H156.756V408.326H157.26C158.952 408.326 160.158 407.426 160.32 406.022H162.822V419H160.158ZM169.961 419.108C166.991 419.108 165.101 416.678 165.101 412.448C165.101 408.11 167.117 405.86 170.015 405.86C172.967 405.86 174.839 408.272 174.839 412.484C174.839 416.858 172.823 419.108 169.961 419.108ZM169.943 416.768C171.581 416.768 172.049 415.076 172.049 412.556C172.049 409.19 171.221 408.182 169.997 408.182C168.359 408.182 167.891 409.874 167.891 412.376C167.891 415.688 168.701 416.768 169.943 416.768ZM180.825 419.108C177.855 419.108 175.965 416.678 175.965 412.448C175.965 408.11 177.981 405.86 180.879 405.86C183.831 405.86 185.703 408.272 185.703 412.484C185.703 416.858 183.687 419.108 180.825 419.108ZM180.807 416.768C182.445 416.768 182.913 415.076 182.913 412.556C182.913 409.19 182.085 408.182 180.861 408.182C179.223 408.182 178.755 409.874 178.755 412.376C178.755 415.688 179.565 416.768 180.807 416.768ZM190.302 412.304C188.412 412.304 187.062 410.954 187.062 408.992C187.062 407.084 188.358 405.716 190.302 405.716C192.264 405.716 193.578 407.084 193.578 409.01C193.578 410.918 192.246 412.304 190.302 412.304ZM189.402 419L197.736 405.878H199.14L190.788 419H189.402ZM190.302 410.72C191.22 410.72 191.814 409.982 191.814 408.974C191.814 407.984 191.202 407.3 190.302 407.3C189.438 407.3 188.826 407.984 188.826 408.974C188.826 409.982 189.402 410.72 190.302 410.72ZM198.078 419.18C196.188 419.18 194.82 417.83 194.82 415.868C194.82 413.978 196.134 412.592 198.078 412.592C200.04 412.592 201.318 413.978 201.318 415.886C201.318 417.812 200.004 419.18 198.078 419.18ZM198.078 417.596C198.978 417.596 199.59 416.876 199.59 415.85C199.59 414.86 198.96 414.158 198.078 414.158C197.196 414.158 196.566 414.86 196.566 415.85C196.566 416.876 197.178 417.596 198.078 417.596ZM207.841 419V405.878H213.853C216.355 405.878 217.759 407.192 217.759 409.208C217.759 410.558 217.147 411.674 215.887 412.142V412.304C217.363 412.754 218.101 413.96 218.101 415.4C218.101 417.578 216.517 419 213.889 419H207.841ZM209.803 411.494H213.493C214.933 411.494 215.671 410.738 215.671 409.532C215.671 408.254 214.825 407.534 213.493 407.534H209.803V411.494ZM209.803 417.326H213.565C215.293 417.326 215.977 416.426 215.977 415.202C215.977 413.834 215.095 413.096 213.565 413.096H209.803V417.326ZM222.604 419.18C220.678 419.18 219.4 418.1 219.4 416.444C219.4 414.5 220.804 413.456 223.036 413.456H225.574V412.7C225.574 411.656 224.98 410.972 223.576 410.972C222.19 410.972 221.524 411.566 221.524 412.43H219.706C219.706 410.468 221.308 409.352 223.666 409.352C226.006 409.352 227.482 410.468 227.482 412.754V417.164C227.482 417.596 227.626 417.776 227.914 417.776C228.094 417.776 228.31 417.722 228.454 417.578V418.892C228.166 419.09 227.716 419.18 227.338 419.18C226.312 419.18 225.718 418.676 225.718 417.65V417.524H225.61C225.232 418.532 224.008 419.18 222.604 419.18ZM223.234 417.632C224.782 417.632 225.574 416.696 225.574 415.742V414.752H223.234C222.136 414.752 221.38 415.13 221.38 416.21C221.38 417.128 222.01 417.632 223.234 417.632ZM230.017 419V409.532H231.835L231.925 411.242H232.051C232.519 410.036 233.635 409.352 235.057 409.352C237.037 409.352 238.441 410.504 238.441 413.186V419H236.533V413.546C236.533 411.818 235.867 410.99 234.427 410.99C232.879 410.99 231.925 412.124 231.925 413.924V419H230.017ZM240.986 419V405.878H242.912V413.852L247.016 409.532H249.428L245.756 413.258L249.536 419H247.322L244.406 414.554L242.912 416.066V419H240.986ZM255.583 419V405.878H260.875C264.673 405.878 266.761 408.542 266.761 412.448C266.761 416.354 264.655 419 260.875 419H255.583ZM257.581 417.218H260.677C263.161 417.218 264.655 415.544 264.655 412.412C264.655 409.19 263.053 407.66 260.677 407.66H257.581V417.218ZM272.754 419.18C269.91 419.18 268.164 417.254 268.164 414.302C268.164 411.314 269.946 409.352 272.772 409.352C275.346 409.352 277.002 411.044 277.002 413.6C277.002 414.032 276.966 414.428 276.912 414.68H270.09C270.162 416.57 271.188 417.596 272.754 417.596C274.032 417.596 274.932 416.984 275.148 416.102H277.002C276.732 417.938 275.004 419.18 272.754 419.18ZM270.144 413.33H275.076C275.058 411.782 274.14 410.954 272.7 410.954C271.332 410.954 270.324 411.836 270.144 413.33ZM279.007 422.006V409.532H280.861L280.915 411.242H281.041C281.509 410.108 282.733 409.352 284.209 409.352C286.567 409.352 288.151 411.062 288.151 414.284C288.151 417.47 286.567 419.18 284.209 419.18C282.733 419.18 281.509 418.424 281.041 417.29H280.915V422.006H279.007ZM283.597 417.542C285.163 417.542 286.207 416.534 286.207 414.284C286.207 412.016 285.163 410.99 283.597 410.99C281.995 410.99 280.933 412.142 280.933 413.708V414.824C280.933 416.39 281.995 417.542 283.597 417.542ZM289.522 414.284C289.522 411.386 291.304 409.352 294.13 409.352C296.902 409.352 298.72 411.296 298.72 414.284C298.72 417.182 296.974 419.18 294.13 419.18C291.376 419.18 289.522 417.272 289.522 414.284ZM291.466 414.284C291.466 416.318 292.42 417.542 294.13 417.542C295.732 417.542 296.794 416.408 296.794 414.266C296.794 412.232 295.84 411.008 294.13 411.008C292.528 411.008 291.466 412.124 291.466 414.284ZM304.01 419.18C301.544 419.18 300.05 417.938 300.05 416.102H301.922C301.922 417.128 302.714 417.758 304.046 417.758C305.234 417.758 305.954 417.218 305.954 416.354C305.954 415.472 305.216 415.274 304.748 415.184L302.84 414.806C300.95 414.464 300.284 413.492 300.284 412.25C300.284 410.45 301.76 409.352 303.992 409.352C306.278 409.352 307.664 410.54 307.682 412.268H305.846C305.792 411.26 305.09 410.792 303.974 410.792C302.822 410.792 302.192 411.278 302.192 412.052C302.192 413.042 303.128 413.204 303.614 413.294L305.378 413.6C307.214 413.942 307.916 414.914 307.916 416.282C307.916 418.064 306.332 419.18 304.01 419.18ZM309.91 408.002V405.878H311.8V408.002H309.91ZM309.91 419V409.532H311.8V419H309.91ZM317.235 419.18C315.885 419.18 314.895 418.622 314.895 416.912V411.116H313.293V409.532H314.895V406.922L316.785 406.472V409.532H318.873V411.116H316.785V416.336C316.785 417.218 317.001 417.542 317.883 417.542C318.333 417.542 318.657 417.434 318.873 417.308V418.856C318.513 419.036 317.865 419.18 317.235 419.18ZM323.962 419.18C321.496 419.18 320.002 417.938 320.002 416.102H321.874C321.874 417.128 322.666 417.758 323.998 417.758C325.186 417.758 325.906 417.218 325.906 416.354C325.906 415.472 325.168 415.274 324.7 415.184L322.792 414.806C320.902 414.464 320.236 413.492 320.236 412.25C320.236 410.45 321.712 409.352 323.944 409.352C326.23 409.352 327.616 410.54 327.634 412.268H325.798C325.744 411.26 325.042 410.792 323.926 410.792C322.774 410.792 322.144 411.278 322.144 412.052C322.144 413.042 323.08 413.204 323.566 413.294L325.33 413.6C327.166 413.942 327.868 414.914 327.868 416.282C327.868 418.064 326.284 419.18 323.962 419.18ZM337.629 419.18C335.361 419.18 333.561 417.938 333.561 415.598C333.561 414.086 334.443 412.628 336.387 411.764C335.343 410.738 334.875 409.82 334.875 408.794C334.875 406.94 336.351 405.698 338.349 405.698C340.203 405.698 341.607 406.886 341.607 408.686C341.607 410.18 340.563 411.404 338.997 411.98V412.088L341.733 415.022C342.111 414.176 342.309 413.006 342.291 411.998H345.369V413.402H343.767C343.677 414.428 343.335 415.49 342.867 416.282L345.423 419H343.083L341.661 417.452C340.725 418.622 339.267 419.18 337.629 419.18ZM337.953 411.008H338.079C339.303 410.522 339.915 409.73 339.915 408.848C339.915 407.93 339.285 407.282 338.331 407.282C337.359 407.282 336.711 407.966 336.711 408.866C336.711 409.676 337.179 410.27 337.953 411.008ZM337.917 417.56C339.141 417.56 340.005 417.056 340.563 416.264L337.395 412.844C336.207 413.33 335.433 414.248 335.433 415.436C335.433 416.786 336.405 417.56 337.917 417.56ZM353.817 419V407.678H349.785V405.878H359.847V407.678H355.815V419H353.817ZM360.569 414.356V412.826H366.779V414.356H360.569ZM368.944 419V405.878H374.956C377.458 405.878 378.862 407.192 378.862 409.208C378.862 410.558 378.25 411.674 376.99 412.142V412.304C378.466 412.754 379.204 413.96 379.204 415.4C379.204 417.578 377.62 419 374.992 419H368.944ZM370.906 411.494H374.596C376.036 411.494 376.774 410.738 376.774 409.532C376.774 408.254 375.928 407.534 374.596 407.534H370.906V411.494ZM370.906 417.326H374.668C376.396 417.326 377.08 416.426 377.08 415.202C377.08 413.834 376.198 413.096 374.668 413.096H370.906V417.326ZM381.259 408.002V405.878H383.149V408.002H381.259ZM381.259 419V409.532H383.149V419H381.259ZM385.777 419V405.878H387.667V419H385.777ZM390.294 419V405.878H392.184V419H390.294ZM398.106 419.18C395.64 419.18 394.146 417.938 394.146 416.102H396.018C396.018 417.128 396.81 417.758 398.142 417.758C399.33 417.758 400.05 417.218 400.05 416.354C400.05 415.472 399.312 415.274 398.844 415.184L396.936 414.806C395.046 414.464 394.38 413.492 394.38 412.25C394.38 410.45 395.856 409.352 398.088 409.352C400.374 409.352 401.76 410.54 401.778 412.268H399.942C399.888 411.26 399.186 410.792 398.07 410.792C396.918 410.792 396.288 411.278 396.288 412.052C396.288 413.042 397.224 413.204 397.71 413.294L399.474 413.6C401.31 413.942 402.012 414.914 402.012 416.282C402.012 418.064 400.428 419.18 398.106 419.18Z" fill="#242528"/>
<rect x="452" y="404" width="16" height="16" fill="#122A5F"/>
<path d="M481.202 419.162C478.664 419.162 476.99 417.758 476.774 415.652H479.402C479.564 416.39 480.284 416.858 481.238 416.858C482.804 416.858 483.614 415.616 483.488 413.24H483.38C482.858 414.104 481.868 414.59 480.608 414.59C478.232 414.59 476.612 412.88 476.612 410.324C476.612 407.534 478.484 405.86 481.328 405.86C484.532 405.86 486.26 408.164 486.26 412.502C486.26 417.092 484.406 419.162 481.202 419.162ZM481.256 412.556C482.534 412.556 483.254 411.602 483.254 410.36C483.254 409.064 482.48 408.182 481.256 408.182C480.068 408.182 479.294 409.046 479.294 410.396C479.294 411.746 480.086 412.556 481.256 412.556ZM490.264 419C490.264 414.104 491.938 410.936 493.738 408.362H489.67V410.504H487.51V406.022H496.906V407.948C494.728 411.026 493.144 413.78 493.144 419H490.264ZM501.618 412.304C499.728 412.304 498.378 410.954 498.378 408.992C498.378 407.084 499.674 405.716 501.618 405.716C503.58 405.716 504.894 407.084 504.894 409.01C504.894 410.918 503.562 412.304 501.618 412.304ZM500.718 419L509.052 405.878H510.456L502.104 419H500.718ZM501.618 410.72C502.536 410.72 503.13 409.982 503.13 408.974C503.13 407.984 502.518 407.3 501.618 407.3C500.754 407.3 500.142 407.984 500.142 408.974C500.142 409.982 500.718 410.72 501.618 410.72ZM509.394 419.18C507.504 419.18 506.136 417.83 506.136 415.868C506.136 413.978 507.45 412.592 509.394 412.592C511.356 412.592 512.634 413.978 512.634 415.886C512.634 417.812 511.32 419.18 509.394 419.18ZM509.394 417.596C510.294 417.596 510.906 416.876 510.906 415.85C510.906 414.86 510.276 414.158 509.394 414.158C508.512 414.158 507.882 414.86 507.882 415.85C507.882 416.876 508.494 417.596 509.394 417.596ZM519.157 419V405.878H524.449C528.247 405.878 530.335 408.542 530.335 412.448C530.335 416.354 528.229 419 524.449 419H519.157ZM521.155 417.218H524.251C526.735 417.218 528.229 415.544 528.229 412.412C528.229 409.19 526.627 407.66 524.251 407.66H521.155V417.218ZM536.329 419.18C533.485 419.18 531.739 417.254 531.739 414.302C531.739 411.314 533.521 409.352 536.347 409.352C538.921 409.352 540.577 411.044 540.577 413.6C540.577 414.032 540.541 414.428 540.487 414.68H533.665C533.737 416.57 534.763 417.596 536.329 417.596C537.607 417.596 538.507 416.984 538.723 416.102H540.577C540.307 417.938 538.579 419.18 536.329 419.18ZM533.719 413.33H538.651C538.633 411.782 537.715 410.954 536.275 410.954C534.907 410.954 533.899 411.836 533.719 413.33ZM547.784 419.18C546.308 419.18 545.084 418.424 544.616 417.29H544.49L544.382 419H542.582V405.878H544.49V411.242H544.616C545.084 410.108 546.308 409.352 547.784 409.352C550.142 409.352 551.726 411.062 551.726 414.284C551.726 417.47 550.142 419.18 547.784 419.18ZM547.172 417.542C548.738 417.542 549.782 416.534 549.782 414.284C549.782 412.016 548.738 410.99 547.172 410.99C545.57 410.99 544.508 412.142 544.508 413.708V414.824C544.508 416.39 545.57 417.542 547.172 417.542ZM556.393 419.18C555.043 419.18 554.053 418.622 554.053 416.912V411.116H552.451V409.532H554.053V406.922L555.943 406.472V409.532H558.031V411.116H555.943V416.336C555.943 417.218 556.159 417.542 557.041 417.542C557.491 417.542 557.815 417.434 558.031 417.308V418.856C557.671 419.036 557.023 419.18 556.393 419.18ZM566.819 419V407.678H562.787V405.878H572.849V407.678H568.817V419H566.819ZM572.151 414.284C572.151 411.386 573.933 409.352 576.759 409.352C579.531 409.352 581.349 411.296 581.349 414.284C581.349 417.182 579.603 419.18 576.759 419.18C574.005 419.18 572.151 417.272 572.151 414.284ZM574.095 414.284C574.095 416.318 575.049 417.542 576.759 417.542C578.361 417.542 579.423 416.408 579.423 414.266C579.423 412.232 578.469 411.008 576.759 411.008C575.157 411.008 574.095 412.124 574.095 414.284ZM583.345 419V405.878H585.271V413.852L589.375 409.532H591.787L588.115 413.258L591.895 419H589.681L586.765 414.554L585.271 416.066V419H583.345ZM597.026 419.18C594.182 419.18 592.436 417.254 592.436 414.302C592.436 411.314 594.218 409.352 597.044 409.352C599.618 409.352 601.274 411.044 601.274 413.6C601.274 414.032 601.238 414.428 601.184 414.68H594.362C594.434 416.57 595.46 417.596 597.026 417.596C598.304 417.596 599.204 416.984 599.42 416.102H601.274C601.004 417.938 599.276 419.18 597.026 419.18ZM594.416 413.33H599.348C599.33 411.782 598.412 410.954 596.972 410.954C595.604 410.954 594.596 411.836 594.416 413.33ZM603.279 419V409.532H605.097L605.187 411.242H605.313C605.781 410.036 606.897 409.352 608.319 409.352C610.299 409.352 611.703 410.504 611.703 413.186V419H609.795V413.546C609.795 411.818 609.129 410.99 607.689 410.99C606.141 410.99 605.187 412.124 605.187 413.924V419H603.279ZM617.366 419.18C614.9 419.18 613.406 417.938 613.406 416.102H615.278C615.278 417.128 616.07 417.758 617.402 417.758C618.59 417.758 619.31 417.218 619.31 416.354C619.31 415.472 618.572 415.274 618.104 415.184L616.196 414.806C614.306 414.464 613.64 413.492 613.64 412.25C613.64 410.45 615.116 409.352 617.348 409.352C619.634 409.352 621.02 410.54 621.038 412.268H619.202C619.148 411.26 618.446 410.792 617.33 410.792C616.178 410.792 615.548 411.278 615.548 412.052C615.548 413.042 616.484 413.204 616.97 413.294L618.734 413.6C620.57 413.942 621.272 414.914 621.272 416.282C621.272 418.064 619.688 419.18 617.366 419.18ZM626.929 413.78C626.929 410.252 628.459 406.778 630.835 405.086H632.527C630.205 406.76 628.603 410.216 628.603 413.78C628.603 417.254 630.187 420.782 632.527 422.456H630.835C628.459 420.782 626.929 417.344 626.929 413.78ZM639.883 419.18C636.571 419.18 634.573 417.308 634.573 414.212V405.878H636.571V414.14C636.571 416.408 637.867 417.362 639.883 417.362C642.223 417.362 643.213 416.102 643.213 414.14V405.878H645.193V414.212C645.193 417.254 643.249 419.18 639.883 419.18ZM652.57 419.18C649.06 419.18 647.35 417.416 647.314 414.932H649.384C649.438 416.66 650.518 417.578 652.588 417.578C654.46 417.578 655.558 416.714 655.558 415.4C655.558 413.888 654.172 413.6 653.614 413.456L651.472 413.006C650.14 412.754 647.62 412.142 647.62 409.442C647.62 407.192 649.474 405.698 652.444 405.698C655.504 405.698 657.196 407.228 657.232 409.532H655.198C655.108 407.966 653.974 407.3 652.318 407.3C650.68 407.3 649.726 408.038 649.726 409.19C649.726 410.594 651.076 410.918 651.904 411.098L654.154 411.548C655.72 411.872 657.682 412.718 657.682 415.22C657.682 417.686 655.702 419.18 652.57 419.18ZM660.116 419V405.878H665.408C669.206 405.878 671.294 408.542 671.294 412.448C671.294 416.354 669.188 419 665.408 419H660.116ZM662.114 417.218H665.21C667.694 417.218 669.188 415.544 669.188 412.412C669.188 409.19 667.586 407.66 665.21 407.66H662.114V417.218ZM676.489 419V413.762L671.593 405.878H673.879L677.443 411.836H677.569L681.133 405.878H683.401L678.487 413.762V419H676.489ZM689.683 413.78C689.683 417.38 688.135 420.782 685.759 422.456H684.067C686.389 420.782 687.991 417.272 687.991 413.78C687.991 410.252 686.389 406.76 684.067 405.086H685.759C688.153 406.778 689.683 410.288 689.683 413.78Z" fill="#242528"/>
<rect x="452" y="432" width="16" height="16" fill="#FF966C"/>
<path d="M477.872 442.248C477.728 440.016 478.826 439.368 479.798 439.368C481.04 439.368 481.76 440.394 482.768 440.394C483.398 440.394 483.686 439.98 483.686 439.224H484.928C485.072 441.474 483.884 442.158 482.912 442.158C481.472 442.158 480.68 441.132 479.852 441.132C479.294 441.132 479.06 441.618 479.114 442.248H477.872ZM492.067 447.18C489.151 447.18 487.441 445.506 487.423 442.986H490.105C490.087 444.228 490.897 444.894 492.085 444.894C493.291 444.894 494.083 444.174 494.083 443.076C494.083 442.032 493.345 441.402 492.211 441.402H490.771V439.35H492.013C493.255 439.35 493.903 438.648 493.903 437.712C493.903 436.704 493.147 436.164 492.103 436.164C490.951 436.164 490.249 436.83 490.213 437.982H487.495C487.549 435.48 489.421 433.86 492.211 433.86C494.767 433.86 496.657 435.174 496.657 437.37C496.657 438.648 495.991 439.728 494.839 440.214V440.34C496.189 440.772 496.837 441.96 496.837 443.292C496.837 445.632 494.875 447.18 492.067 447.18ZM501.671 440.304C499.781 440.304 498.431 438.954 498.431 436.992C498.431 435.084 499.727 433.716 501.671 433.716C503.633 433.716 504.947 435.084 504.947 437.01C504.947 438.918 503.615 440.304 501.671 440.304ZM500.771 447L509.105 433.878H510.509L502.157 447H500.771ZM501.671 438.72C502.589 438.72 503.183 437.982 503.183 436.974C503.183 435.984 502.571 435.3 501.671 435.3C500.807 435.3 500.195 435.984 500.195 436.974C500.195 437.982 500.771 438.72 501.671 438.72ZM509.447 447.18C507.557 447.18 506.189 445.83 506.189 443.868C506.189 441.978 507.503 440.592 509.447 440.592C511.409 440.592 512.687 441.978 512.687 443.886C512.687 445.812 511.373 447.18 509.447 447.18ZM509.447 445.596C510.347 445.596 510.959 444.876 510.959 443.85C510.959 442.86 510.329 442.158 509.447 442.158C508.565 442.158 507.935 442.86 507.935 443.85C507.935 444.876 508.547 445.596 509.447 445.596ZM519.21 447V433.878H528.336V435.66H521.208V439.476H527.454V441.15H521.208V445.218H528.336V447H519.21ZM537.042 450.006V445.29H536.898C536.448 446.424 535.206 447.18 533.73 447.18C531.372 447.18 529.788 445.47 529.788 442.266C529.788 439.044 531.372 437.352 533.73 437.352C535.206 437.352 536.448 438.09 536.898 439.242H537.042L537.132 437.532H538.932V450.006H537.042ZM534.342 445.542C535.944 445.542 537.024 444.39 537.024 442.824V441.69C537.024 440.106 535.944 438.972 534.342 438.972C532.776 438.972 531.732 439.998 531.732 442.266C531.732 444.534 532.776 445.542 534.342 445.542ZM544.82 447.18C542.732 447.18 541.472 445.92 541.472 443.418V437.532H543.38V442.986C543.38 444.714 544.028 445.542 545.45 445.542C546.962 445.542 547.916 444.408 547.916 442.626V437.532H549.806V447H547.988L547.898 445.29H547.772C547.322 446.496 546.206 447.18 544.82 447.18ZM552.425 436.002V433.878H554.315V436.002H552.425ZM552.425 447V437.532H554.315V447H552.425ZM559.751 447.18C558.401 447.18 557.411 446.622 557.411 444.912V439.116H555.809V437.532H557.411V434.922L559.301 434.472V437.532H561.389V439.116H559.301V444.336C559.301 445.218 559.517 445.542 560.399 445.542C560.849 445.542 561.173 445.434 561.389 445.308V446.856C561.029 447.036 560.381 447.18 559.751 447.18ZM563.597 450.186C563.165 450.186 562.733 450.096 562.481 449.952V448.386C562.769 448.53 563.075 448.584 563.309 448.584C564.155 448.584 564.695 448.224 565.037 447.342L565.289 446.64L561.743 437.532H563.795L566.243 444.696H566.351L568.619 437.532H570.653L567.071 447.54C566.315 449.664 565.073 450.186 563.597 450.186ZM575.171 442.356V440.826H588.077V442.356H575.171ZM597.039 447V437.73H593.637V436.29H594.069C595.797 436.29 596.967 435.444 597.147 434.022H598.911V447H597.039ZM605.36 447.18C602.894 447.18 601.4 445.938 601.4 444.102H603.272C603.272 445.128 604.064 445.758 605.396 445.758C606.584 445.758 607.304 445.218 607.304 444.354C607.304 443.472 606.566 443.274 606.098 443.184L604.19 442.806C602.3 442.464 601.634 441.492 601.634 440.25C601.634 438.45 603.11 437.352 605.342 437.352C607.628 437.352 609.014 438.54 609.032 440.268H607.196C607.142 439.26 606.44 438.792 605.324 438.792C604.172 438.792 603.542 439.278 603.542 440.052C603.542 441.042 604.478 441.204 604.964 441.294L606.728 441.6C608.564 441.942 609.266 442.914 609.266 444.282C609.266 446.064 607.682 447.18 605.36 447.18ZM613.909 447.18C612.559 447.18 611.569 446.622 611.569 444.912V439.116H609.967V437.532H611.569V434.922L613.459 434.472V437.532H615.547V439.116H613.459V444.336C613.459 445.218 613.675 445.542 614.557 445.542C615.007 445.542 615.331 445.434 615.547 445.308V446.856C615.187 447.036 614.539 447.18 613.909 447.18ZM621.743 447V433.878H623.741V445.182H629.843V447H621.743ZM630.563 442.284C630.563 439.386 632.345 437.352 635.171 437.352C637.943 437.352 639.761 439.296 639.761 442.284C639.761 445.182 638.015 447.18 635.171 447.18C632.417 447.18 630.563 445.272 630.563 442.284ZM632.507 442.284C632.507 444.318 633.461 445.542 635.171 445.542C636.773 445.542 637.835 444.408 637.835 442.266C637.835 440.232 636.881 439.008 635.171 439.008C633.569 439.008 632.507 440.124 632.507 442.284ZM645.051 447.18C642.585 447.18 641.091 445.938 641.091 444.102H642.963C642.963 445.128 643.755 445.758 645.087 445.758C646.275 445.758 646.995 445.218 646.995 444.354C646.995 443.472 646.257 443.274 645.789 443.184L643.881 442.806C641.991 442.464 641.325 441.492 641.325 440.25C641.325 438.45 642.801 437.352 645.033 437.352C647.319 437.352 648.705 438.54 648.723 440.268H646.887C646.833 439.26 646.131 438.792 645.015 438.792C643.863 438.792 643.233 439.278 643.233 440.052C643.233 441.042 644.169 441.204 644.655 441.294L646.419 441.6C648.255 441.942 648.957 442.914 648.957 444.282C648.957 446.064 647.373 447.18 645.051 447.18ZM654.245 447.18C651.779 447.18 650.285 445.938 650.285 444.102H652.157C652.157 445.128 652.949 445.758 654.281 445.758C655.469 445.758 656.189 445.218 656.189 444.354C656.189 443.472 655.451 443.274 654.983 443.184L653.075 442.806C651.185 442.464 650.519 441.492 650.519 440.25C650.519 438.45 651.995 437.352 654.227 437.352C656.513 437.352 657.899 438.54 657.917 440.268H656.081C656.027 439.26 655.325 438.792 654.209 438.792C653.057 438.792 652.427 439.278 652.427 440.052C652.427 441.042 653.363 441.204 653.849 441.294L655.613 441.6C657.449 441.942 658.151 442.914 658.151 444.282C658.151 446.064 656.567 447.18 654.245 447.18Z" fill="#242528"/>
</svg>
